<svg xmlns="http://www.w3.org/2000/svg" xmlns:xlink="http://www.w3.org/1999/xlink" id="Layer_1" x="0px" y="0px" viewBox="0 0 184 184" style="enable-background:new 0 0 184 184;" xml:space="preserve"><style type="text/css">	.st0{fill:#16B9B6;}	.st1{fill:#3CC0C4;}</style><g id="Search.LOCKUP_00000068655294462657355890000011459264175454587568_">	<g id="Search.mark_00000138554663942985945790000014517126297922284457_">		<path id="tealAccent_00000139985399754981226600000018258700650854339471_" class="st0" d="M42.5,14.6   C-0.2,42.1-12.6,98.9,14.8,141.7c25,38.9,74.9,53.2,116.6,33.5l-14.3-24.7c-0.7-1.3-2.3-1.9-3.7-1.4   c-31.5,11.7-66.6-4.3-78.3-35.8S39.4,46.7,70.9,35s66.6,4.3,78.3,35.8c9.1,24.3,1.7,51.7-18.3,68.2c-1.1,1-1.4,2.6-0.7,3.9   l14.3,24.7c41.7-29,52-86.2,23.1-128C139.5-1.1,84.1-12.1,42.5,14.6L42.5,14.6z"></path>		<path id="teal_00000078727375719511168760000001719411635448024224_" class="st1" d="M92.2,40.7c-28.4,0-51.3,23-51.3,51.3   s23,51.3,51.3,51.3s51.3-23,51.3-51.3l0,0C143.5,63.6,120.6,40.7,92.2,40.7z"></path>	</g></g></svg>